<svg width="25" height="23" viewBox="0 0 25 23" fill="none" xmlns="http://www.w3.org/2000/svg">
<path d="M24.9293 3.46718C24.8593 3.29206 24.7406 3.14237 24.5884 3.03704C24.4361 2.9317 24.2571 2.87546 24.074 2.87542H20.5519C20.0594 2.00836 19.3586 1.28793 18.5175 0.78415C17.6764 0.280374 16.7237 0.010403 15.7519 0.000483361C15.028 -0.0093444 14.3094 0.130783 13.6385 0.412619C12.9677 0.694456 12.3581 1.11231 11.8456 1.64159C11.3181 2.17732 10.8994 2.81678 10.6142 3.52239C10.3289 4.22799 10.1829 4.9855 10.1846 5.75036V6.47988C5.52474 5.20772 1.71327 1.28462 1.67276 1.2427C1.54853 1.11299 1.39108 1.02272 1.21895 0.982523C1.04681 0.942324 0.867162 0.953867 0.701153 1.01579C0.535145 1.07772 0.38969 1.18745 0.28192 1.33207C0.174149 1.47668 0.108551 1.65015 0.0928483 1.83206C-0.406011 7.55678 1.20052 11.3876 2.63923 13.593C3.34073 14.6832 4.19412 15.66 5.17172 16.4919C3.40893 18.5918 0.633375 19.695 0.603282 19.707C0.472622 19.7576 0.354711 19.8382 0.258358 19.9426C0.162006 20.0471 0.0897027 20.1727 0.0468523 20.3101C0.00400193 20.4475 -0.00828793 20.5932 0.0109007 20.7362C0.0300893 20.8793 0.0802601 21.0159 0.157665 21.1361C0.244473 21.2702 0.591707 21.741 1.44011 22.1806C2.48876 22.7245 3.87422 23 5.55483 23C13.7345 23 20.5692 16.4811 21.2672 8.09344L24.7291 4.51174C24.8585 4.37765 24.9467 4.20683 24.9823 4.0209C25.0179 3.83496 24.9995 3.64227 24.9293 3.46718ZM19.7208 6.99018C19.5621 7.15488 19.4666 7.37373 19.4523 7.6059C18.9812 15.1634 12.8791 21.0834 5.55483 21.0834C4.33257 21.0834 3.47143 20.9157 2.86725 20.7144C4.19947 19.9657 6.05717 18.678 7.25165 16.8237C7.32176 16.7146 7.36952 16.5919 7.392 16.463C7.41448 16.3341 7.41119 16.2018 7.38234 16.0743C7.35349 15.9468 7.29968 15.8267 7.22425 15.7216C7.14882 15.6164 7.05336 15.5284 6.94377 15.4629C6.88937 15.4305 1.86143 12.3076 1.85101 3.96311C3.70292 5.52037 7.08845 7.93652 10.9566 8.60973C11.0892 8.63286 11.2251 8.62584 11.3547 8.58915C11.4844 8.55246 11.6048 8.48698 11.7076 8.39727C11.8104 8.30756 11.893 8.19576 11.9498 8.06964C12.0066 7.94353 12.0362 7.80613 12.0365 7.66699V5.75036C12.0355 5.23916 12.1333 4.73291 12.3241 4.2614C12.5149 3.78988 12.7949 3.36264 13.1477 3.0048C13.4858 2.65417 13.8885 2.37726 14.3318 2.19044C14.7751 2.00362 15.2502 1.91068 15.7288 1.91711C17.1941 1.93628 18.5634 2.86105 19.1363 4.21826C19.2085 4.38889 19.3272 4.53404 19.4779 4.63595C19.6286 4.73786 19.8047 4.7921 19.9847 4.79205H21.8366L19.7208 6.99018Z" fill="black" fill-opacity="0.66"/>
</svg>
