<svg width="23" height="23" viewBox="0 0 23 23" fill="none" xmlns="http://www.w3.org/2000/svg">
<path d="M11.5 0C9.22552 0 7.00211 0.674463 5.11095 1.9381C3.21978 3.20174 1.7458 4.99779 0.87539 7.09914C0.00498277 9.20049 -0.222756 11.5128 0.220974 13.7435C0.664704 15.9743 1.75997 18.0234 3.36828 19.6317C4.97658 21.24 7.02568 22.3353 9.25646 22.779C11.4872 23.2228 13.7995 22.995 15.9009 22.1246C18.0022 21.2542 19.7983 19.7802 21.0619 17.8891C22.3255 15.9979 23 13.7745 23 11.5C22.9968 8.451 21.7841 5.5278 19.6282 3.37183C17.4722 1.21586 14.549 0.0032198 11.5 0ZM12.3846 21.1899V14.1538H15.0385C15.2731 14.1538 15.4981 14.0606 15.664 13.8947C15.8299 13.7288 15.9231 13.5038 15.9231 13.2692C15.9231 13.0346 15.8299 12.8096 15.664 12.6437C15.4981 12.4778 15.2731 12.3846 15.0385 12.3846H12.3846V9.73077C12.3846 9.26154 12.571 8.81153 12.9028 8.47973C13.2346 8.14794 13.6846 7.96154 14.1538 7.96154H15.9231C16.1577 7.96154 16.3827 7.86834 16.5486 7.70244C16.7145 7.53654 16.8077 7.31154 16.8077 7.07692C16.8077 6.84231 16.7145 6.6173 16.5486 6.4514C16.3827 6.28551 16.1577 6.19231 15.9231 6.19231H14.1538C13.2154 6.19231 12.3154 6.56511 11.6518 7.2287C10.9882 7.89229 10.6154 8.79231 10.6154 9.73077V12.3846H7.96154C7.72693 12.3846 7.50192 12.4778 7.33602 12.6437C7.17013 12.8096 7.07693 13.0346 7.07693 13.2692C7.07693 13.5038 7.17013 13.7288 7.33602 13.8947C7.50192 14.0606 7.72693 14.1538 7.96154 14.1538H10.6154V21.1899C8.12165 20.9622 5.81166 19.782 4.16592 17.8946C2.52018 16.0073 1.66537 13.5581 1.77931 11.0566C1.89325 8.5551 2.96717 6.1938 4.77768 4.46389C6.58818 2.73397 8.9959 1.76861 11.5 1.76861C14.0041 1.76861 16.4118 2.73397 18.2223 4.46389C20.0328 6.1938 21.1068 8.5551 21.2207 11.0566C21.3346 13.5581 20.4798 16.0073 18.8341 17.8946C17.1883 19.782 14.8784 20.9622 12.3846 21.1899Z" fill="black" fill-opacity="0.57"/>
</svg>
