<svg width="23" height="23" viewBox="0 0 23 23" fill="none" xmlns="http://www.w3.org/2000/svg">
<path d="M11.5 6.19231C10.4502 6.19231 9.42405 6.5036 8.5512 7.08682C7.67836 7.67003 6.99806 8.49898 6.59633 9.46883C6.19461 10.4387 6.0895 11.5059 6.29429 12.5355C6.49909 13.5651 7.0046 14.5108 7.74689 15.2531C8.48919 15.9954 9.43493 16.5009 10.4645 16.7057C11.4941 16.9105 12.5613 16.8054 13.5312 16.4037C14.501 16.0019 15.33 15.3216 15.9132 14.4488C16.4964 13.576 16.8077 12.5498 16.8077 11.5C16.8062 10.0928 16.2466 8.74358 15.2515 7.74851C14.2564 6.75344 12.9072 6.19377 11.5 6.19231ZM11.5 15.0385C10.8002 15.0385 10.116 14.8309 9.53414 14.4421C8.95224 14.0533 8.4987 13.5007 8.23089 12.8541C7.96307 12.2075 7.893 11.4961 8.02953 10.8097C8.16606 10.1233 8.50307 9.49279 8.99793 8.99793C9.49279 8.50307 10.1233 8.16606 10.8097 8.02953C11.4961 7.893 12.2075 7.96307 12.8541 8.23089C13.5007 8.4987 14.0533 8.95224 14.4421 9.53414C14.8309 10.116 15.0385 10.8002 15.0385 11.5C15.0385 12.4385 14.6657 13.3385 14.0021 14.0021C13.3385 14.6657 12.4385 15.0385 11.5 15.0385ZM16.8077 0H6.19231C4.55054 0.00175621 2.97653 0.654722 1.81562 1.81562C0.654722 2.97653 0.00175621 4.55054 0 6.19231V16.8077C0.00175621 18.4495 0.654722 20.0235 1.81562 21.1844C2.97653 22.3453 4.55054 22.9982 6.19231 23H16.8077C18.4495 22.9982 20.0235 22.3453 21.1844 21.1844C22.3453 20.0235 22.9982 18.4495 23 16.8077V6.19231C22.9982 4.55054 22.3453 2.97653 21.1844 1.81562C20.0235 0.654722 18.4495 0.00175621 16.8077 0ZM21.2308 16.8077C21.2308 17.9808 20.7648 19.1058 19.9353 19.9353C19.1058 20.7648 17.9808 21.2308 16.8077 21.2308H6.19231C5.01923 21.2308 3.89421 20.7648 3.06472 19.9353C2.23523 19.1058 1.76923 17.9808 1.76923 16.8077V6.19231C1.76923 5.01923 2.23523 3.89421 3.06472 3.06472C3.89421 2.23523 5.01923 1.76923 6.19231 1.76923H16.8077C17.9808 1.76923 19.1058 2.23523 19.9353 3.06472C20.7648 3.89421 21.2308 5.01923 21.2308 6.19231V16.8077ZM18.5769 5.75C18.5769 6.01244 18.4991 6.26899 18.3533 6.4872C18.2075 6.70541 18.0003 6.87549 17.7578 6.97592C17.5153 7.07635 17.2485 7.10263 16.9911 7.05143C16.7337 7.00023 16.4973 6.87385 16.3117 6.68828C16.1262 6.5027 15.9998 6.26627 15.9486 6.00887C15.8974 5.75147 15.9237 5.48467 16.0241 5.24221C16.1245 4.99974 16.2946 4.79251 16.5128 4.6467C16.731 4.5009 16.9876 4.42308 17.25 4.42308C17.6019 4.42308 17.9394 4.56288 18.1883 4.81172C18.4371 5.06057 18.5769 5.39808 18.5769 5.75Z" fill="black" fill-opacity="0.65"/>
</svg>
